<?xml version="1.0" standalone="no"?><!DOCTYPE svg PUBLIC "-//W3C//DTD SVG 1.1//EN" "http://www.w3.org/Graphics/SVG/1.1/DTD/svg11.dtd"><svg t="1543851808547" class="icon" style="" viewBox="0 0 1024 1024" version="1.1" xmlns="http://www.w3.org/2000/svg" p-id="4355" xmlns:xlink="http://www.w3.org/1999/xlink" width="200" height="200"><defs><style type="text/css"></style></defs><path d="M819.4 273.8h-96.2v-80.1c0-46.1-37.5-83.5-83.5-83.5H383.1c-46.1 0-83.5 37.5-83.5 83.5v80.1h-95c-52.5 0-95.1 42.7-95.1 95.1v449.8c0 52.4 42.7 95.1 95.1 95.1h614.9c52.5 0 95.1-42.7 95.1-95.1V368.9c0-52.4-42.7-95.1-95.2-95.1z m-483.8-80.1c0-26.2 21.3-47.5 47.5-47.5h256.6c26.2 0 47.5 21.3 47.5 47.5v80.1H335.6v-80.1z m543 625c0 32.6-26.5 59.1-59.1 59.1H204.6c-32.6 0-59.1-26.5-59.1-59.1V486.4h733.1v332.3z m0-368.3H145.4v-81.5c0-32.6 26.5-59.1 59.1-59.1h614.9c32.6 0 59.1 26.5 59.1 59.1v81.5z" p-id="4356"></path></svg>