<?xml version="1.0" standalone="no"?><!DOCTYPE svg PUBLIC "-//W3C//DTD SVG 1.1//EN" "http://www.w3.org/Graphics/SVG/1.1/DTD/svg11.dtd"><svg t="1543851749997" class="icon" style="" viewBox="0 0 1024 1024" version="1.1" xmlns="http://www.w3.org/2000/svg" p-id="3297" xmlns:xlink="http://www.w3.org/1999/xlink" width="200" height="200"><defs><style type="text/css"></style></defs><path d="M511.801135 1024c-107.100805 0-420.003155-387.69522-420.003155-603.996845a420.003155 420.003155 0 0 1 840.00631 0c0 215.817006-313.22543 603.996845-420.003155 603.996845zM511.801135 65.100489A355.387285 355.387285 0 0 0 156.41385 420.487774c0 204.509229 302.079192 531.303991 355.387285 538.896356 52.338855-7.592365 355.387285-334.548667 355.387285-538.896356A355.387285 355.387285 0 0 0 511.801135 65.100489z" fill="#3D3D3D" p-id="3298"></path><path d="M756.533743 415.964663c0 135.370248-198.532261 362.010412-245.217227 362.010412S266.260829 551.334911 266.260829 415.964663a245.217227 245.217227 0 0 1 490.272914 0z" fill="#F683A2" p-id="3299"></path><path d="M511.801135 562.965767a179.793658 179.793658 0 1 1 179.309039-179.793658A179.955198 179.955198 0 0 1 511.801135 562.965767z m0-294.971446a115.177788 115.177788 0 1 0 115.177788 115.177788A115.339328 115.339328 0 0 0 511.801135 267.994321z" fill="#3D3D3D" p-id="3300"></path></svg>