<?xml version="1.0" standalone="no"?><!DOCTYPE svg PUBLIC "-//W3C//DTD SVG 1.1//EN" "http://www.w3.org/Graphics/SVG/1.1/DTD/svg11.dtd"><svg t="1543851826800" class="icon" style="" viewBox="0 0 1240 1024" version="1.1" xmlns="http://www.w3.org/2000/svg" p-id="5213" xmlns:xlink="http://www.w3.org/1999/xlink" width="242.1875" height="200"><defs><style type="text/css"></style></defs><path d="M1240.032446 891.56841v22.604758c-0.51668 0.823459-1.453163 1.614626-1.501601 2.470377-1.727649 29.418478-15.887916 53.16962-34.552988 74.660287C1183.391381 1015.006536 1155.587529 1023.677075 1125.716955 1023.677075q-488.359653 0.581265-976.751599 0.177609c-13.869634 0-27.787706-0.629704-41.641194-1.614626-27.690829-1.969843-50.440903-12.012814-68.201784-35.279569-30.371107-39.719789-39.477595-82.200588-22.782367-129.460679a801.548577 801.548577 0 0 1 67.507495-145.316302c27.561659-46.049122 60.580752-87.964802 97.491093-126.812693 12.303447-12.917005 26.140788-24.413139 39.396864-36.409807a580.344873 580.344873 0 0 1 81.280252-60.516167 615.301517 615.301517 0 0 1 125.940795-60.273973c29.337747-10.172141 59.192174-18.794242 90.112254-22.604758 29.692964-3.649054 59.450514-7.104353 89.272648-9.429414 13.75661-1.065653 27.77156 0.484388 41.625048 1.420871 18.810388 1.2917 37.60463 2.841741 56.350433 4.843877 32.566998 3.439152 64.197513 11.302379 95.47281 20.812523a631.189432 631.189432 0 0 1 139.035409 61.355773 601.819393 601.819393 0 0 1 115.913971 88.239288A790.908195 790.908195 0 0 1 1117.320902 641.091543a591.760276 591.760276 0 0 1 49.294519 70.607577c16.90513 28.80492 31.630515 58.998419 45.564734 89.385672 8.815856 19.246337 14.838409 39.832813 21.313058 60.080218 3.164666 9.83307 4.424074 20.263551 6.539233 30.4034z m-657.620853 53.282644C471.745156 921.955663 390.125833 818.716504 403.97932 704.75623c12.464909-102.399554 97.442654-184.82619 202.990729-192.237322 62.324547-4.391782 117.786936 15.936354 163.174061 59.030712 42.852163 40.656272 65.473067 92.033658 67.394472 150.919053 1.759942 53.702447-15.936354 101.576095-50.279441 143.330313s-77.711929 67.168424-129.945067 79.116653h8.832002q211.919608 0 423.806923 0.096878a233.571737 233.571737 0 0 1 27.884583 1.921404c8.073128 1.001068 16.25928 0.371364 22.16881-4.843877a61.501088 61.501088 0 0 0 20.990132-41.415146c1.16253-12.803981-5.877237-23.250608-9.461706-34.746742a559.709958 559.709958 0 0 0-58.659347-128.282003c-25.285037-40.914612-54.299858-79.019776-90.176839-111.409165-20.085942-18.099953-40.640126-35.828542-62.066207-52.313869-37.136388-28.627312-78.470803-50.618512-122.001109-67.814274-33.907137-13.417539-68.847635-24.75221-105.338173-29.466917-28.352825-3.6652-56.770235-6.878305-85.236084-9.380975-10.269019-0.90419-20.796377 0.51668-31.146128 1.453163-21.910469 1.969843-44.192302 2.421938-65.586091 6.959037a773.518677 773.518677 0 0 0-87.189781 24.057921c-37.039511 12.545641-71.624791 30.774764-104.660031 51.764896a576.421333 576.421333 0 0 0-74.482678 56.511895c-27.012686 24.074067-52.717525 49.472128-73.982144 78.599974-20.473452 28.0299-39.41301 57.303062-57.270769 87.076757a469.064878 469.064878 0 0 0-48.939301 113.524325c-2.664132 9.380975-4.763145 19.375507 0.952629 28.514288 4.327197 6.910597 9.31639 13.401392 14.14412 19.972918 9.154927 12.448763 20.602622 17.16347 36.216051 12.771688a106.000169 106.000169 0 0 1 28.304387-3.374567q204.653792-0.306779 409.275292-0.145316zM765.332526 735.918504c0-4.843877 0.984922-11.722182-0.161463-18.245269-6.458502-36.474392-22.136517-67.814274-51.328947-91.743026-34.988936-28.772628-74.934773-39.913544-119.223953-32.712314-38.751014 6.29704-71.043526 24.703771-95.166032 56.511895-18.293708 24.138652-25.624108 52.055529-25.834009 81.457861-0.080731 14.725385 3.358421 29.983597 7.960104 44.111571 14.53163 44.822006 45.209516 74.934773 89.046601 91.597709 31.04925 11.802913 62.970398 11.399257 94.600912 3.439152 28.708043-7.217376 53.557131-22.104224 71.980009-45.484002 19.859895-25.317329 29.466917-54.574345 28.126778-88.933577z" fill="#333333" p-id="5214"></path><path d="M0 368.429721v-95.262909c5.312118-14.40246 12.319593-27.981461 23.476656-38.605697 15.629576-14.886848 31.646661-29.386186 48.099696-43.336551C107.517917 160.740433 147.124683 135.519981 188.394513 113.028247c35.683225-19.375507 73.174831-34.875913 111.279995-48.923155 43.691768-16.146256 87.36739-32.066464 132.964416-41.738071C461.992818 16.150712 491.669636 11.306835 521.3626 6.947346c21.765153-3.229251 43.756353-5.957968 65.699115-6.345478 44.644397-0.791167 89.369526-1.856819 133.836315 4.504805 20.667207 2.970911 41.592755 4.407928 62.033914 8.428346 47.211652 9.31639 93.648284 21.264619 138.938532 38.153602 49.310665 18.406732 99.202596 35.408739 144.395965 62.970398 24.477724 14.951433 48.697108 30.419546 72.238349 46.824142 17.760881 12.335739 34.617572 26.092349 51.280508 39.92969a270.417492 270.417492 0 0 1 27.448635 26.705907c11.593012 12.820127 18.471317 28.352825 22.717782 45.048054v95.262909c-0.581265 3.778224-0.984922 7.58874-1.759942 11.30238-5.295972 25.575669-14.095681 49.778907-30.92008 70.07475-16.469181 19.876041-36.506684 33.535773-63.955319 33.358164-50.570073-0.355218-101.156293 0-151.774805-0.25834-5.635043 0-12.045107-0.742728-16.775959-3.455299-14.321729-8.23459-28.191363-17.276494-41.802657-26.657468-6.458502-4.407928-13.352954-9.31639-17.42181-15.694161-12.917005-20.069796-17.308786-43.013625-17.760881-66.457988-0.64585-33.067532-0.161463-66.199649-0.161463-99.251035 0-5.134509-0.209901-10.414335-5.893383-12.497202-18.245269-6.716842-36.361368-13.853487-54.89727-19.504677-34.988936-10.656529-70.268505-20.263551-106.759043-24.445431-22.863098-2.63184-45.677758-7.023621-68.589295-7.621033-44.563666-1.16253-89.256502-1.937551-133.481097 6.054846-22.604758 4.085003-45.564734 6.329332-67.555934 12.384178-33.907137 9.348682-66.877792 21.716714-100.558881 31.759685-8.702832 2.583401-9.590876 7.136645-9.687754 14.354022-0.371364 37.297851 0 74.627994-2.050574 111.828967-0.871898 15.387382-6.087138 30.936226-11.657597 45.532442-6.458502 16.969715-22.007347 26.689761-35.3603 38.056725-14.40246 12.222716-30.677886 16.146256-49.262227 15.968647-47.324676-0.597411-94.681644-0.096878-142.087051-0.339072a58.998419 58.998419 0 0 1-17.018153-2.906326c-35.667079-11.060185-58.627055-37.136388-76.339498-67.95959C8.928879 398.816975 5.392849 383.058229 0 368.429721z m1068.30087 35.521763c24.49387 0 48.971594-0.145316 73.465464 0.12917 4.746999 0 7.249669-1.614626 9.235658-5.667335a99.70313 99.70313 0 0 0 9.816923-41.980266c0.371364-21.781299-0.468241-43.594891 0.322926-65.360043 0.419803-11.415403-1.808381-19.133313-12.158131-26.35069-30.500277-21.296911-59.385929-44.886591-89.805475-66.296526-25.39806-17.873905-51.797189-34.375379-78.293194-50.618512-17.066592-10.559651-34.32694-21.264619-52.814403-28.627311-50.876852-20.247405-103.10999-36.619708-157.506726-44.531374-35.053521-5.102217-70.236213-10.640383-105.548074-12.481056-40.785442-2.131306-81.861517-1.840673-122.501643 4.375636-30.241937 4.617829-60.726068 8.202298-90.499764 14.951432-51.668019 11.689889-101.721412 28.659604-149.142964 52.620648-27.787706 14.047243-55.639998 28.094485-82.458929 43.885523-27.868438 16.420742-55.010294 34.230062-81.538592 52.749818-19.246337 13.465977-37.136388 28.950237-55.268633 43.90167a13.950365 13.950365 0 0 0-4.294904 9.526291c-0.355218 23.944897-0.209901 47.905941-0.145317 71.850838a14.095681 14.095681 0 0 0 1.001068 6.184016c6.0387 12.206569 12.464909 24.219384 18.439024 36.442099 2.24433 4.56939 5.425142 5.489727 10.22058 5.473581 46.824142-0.177609 93.648284-0.096878 140.472426-0.113024 9.590876 0 26.722053-13.805049 28.304386-23.331339A120.612531 120.612531 0 0 0 279.330226 361.680587c0.161463-32.018025 0-64.036051 0.113023-96.054076a65.63453 65.63453 0 0 1 0.855752-8.702832c2.712571-19.375507 11.302379-36.216052 23.928751-50.731536 6.458502-7.524155 14.127974-15.597283 22.976122-19.375507 23.654265-10.059117 48.002819-18.681218 72.528981-26.463713 33.907137-10.73726 68.201785-19.779163 103.513646-24.445431 25.430353-3.342275 50.828413-8.444492 76.339498-9.203366 45.903805-1.388578 92.033658-2.3735 137.533807 6.022553 26.673615 4.843877 53.670154 8.557516 79.859381 15.355089 30.677886 7.960104 60.822946 18.326 90.919566 28.498142a169.245053 169.245053 0 0 1 35.812396 16.146256c30.258083 19.004143 45.58088 46.824142 45.209516 82.959462-0.274486 27.448635 0.548973 54.89727-0.25834 82.345905-0.532826 18.261415 9.154927 31.04925 19.940626 43.59489 1.501602 1.759942 5.247533 2.212037 7.960104 2.24433 23.880312 0.161463 47.792917 0.080731 71.737815 0.080731z" fill="#333333" p-id="5215"></path><path d="M1068.30087 403.951484c-23.944897 0-47.889795 0-71.834693-0.080731-2.712571 0-6.458502-0.484388-7.960104-2.24433-10.785699-12.545641-20.473452-25.333475-19.940626-43.59489 0.807313-27.448635 0-54.89727 0.258341-82.345905 0.38751-36.183759-14.935287-63.955319-45.209517-82.959462a169.245053 169.245053 0 0 0-35.812395-16.146256c-30.096621-10.172141-60.209388-20.538037-90.919567-28.498142-26.189227-6.797574-53.185767-10.446628-79.859381-15.355089-45.548588-8.396053-91.630002-7.411131-137.533807-6.022553-25.511084 0.758874-50.909145 5.861091-76.339497 9.203366-35.311861 4.666268-69.671094 13.708171-103.513646 24.445431-24.526163 7.782495-48.874716 16.404596-72.528981 26.463713-8.848148 3.745931-16.453035 11.819059-22.976123 19.375507-12.561787 14.53163-21.21618 31.339883-23.928751 50.731536a65.63453 65.63453 0 0 0-0.855751 8.702832c0 32.018025 0 64.036051-0.113024 96.054076a120.612531 120.612531 0 0 1-1.614626 18.987996c-1.614626 9.526291-18.71351 23.33134-28.304386 23.33134-46.824142 0-93.648284 0-140.472426 0.113024-4.843877 0-7.97625-0.90419-10.220579-5.473581-5.974115-12.238862-12.400324-24.219384-18.439025-36.442099a14.095681 14.095681 0 0 1-1.001067-6.184016c0-23.944897-0.209901-47.905941 0.145316-71.850839a13.950365 13.950365 0 0 1 4.294904-9.461705C101.721412 259.700835 119.627609 244.216576 138.8578 230.750598c26.528298-18.519755 53.670154-36.329076 81.538592-52.749818 26.818931-15.791038 54.671222-29.838281 82.458928-43.885523C350.276874 110.154214 400.427144 93.184499 452.095163 81.494609c29.773696-6.749135 60.257827-10.333604 90.499764-14.951432 40.640126-6.216308 81.716201-6.458502 122.501642-4.375636 35.311861 1.840673 70.494553 7.378839 105.548075 12.481056 54.396736 7.911665 106.565288 24.219384 157.506725 44.531374 18.406732 7.362693 35.667079 18.06766 52.733672 28.562726 26.496006 16.243133 52.895134 32.744607 78.293194 50.618512 30.419546 21.409935 59.305198 44.999615 89.805475 66.296526 10.34975 7.217376 12.577933 14.935287 12.158131 26.35069-0.791167 21.765153 0 43.594891-0.322926 65.360043a99.70313 99.70313 0 0 1-9.816923 41.980266c-1.985989 4.101149-4.488659 5.731921-9.235658 5.667335-24.445431-0.209901-48.971594-0.064585-73.465464-0.064585z" fill="#FF505E" p-id="5216"></path></svg>